<svg xmlns="http://www.w3.org/2000/svg" viewBox="0 0 512 512" width="512" height="512">
<rect width="512" height="512" rx="32" fill="#FFFFFF"/>
<path d="M72 64H248C354.071 64 440 149.929 440 256C440 362.071 354.071 448 248 448H72V64Z" fill="#002F6C"/>
<path d="M168 160H248C301.019 160 344 202.981 344 256C344 309.019 301.019 352 248 352H168V160Z" fill="#FFFFFF"/>
<g stroke="#002F6C" stroke-width="5" stroke-linecap="round" stroke-linejoin="round">
<line x1="205" y1="205" x2="295" y2="225"/>
<line x1="295" y1="225" x2="285" y2="285"/>
<line x1="285" y1="285" x2="205" y2="307"/>
<line x1="205" y1="307" x2="205" y2="205"/>
<line x1="205" y1="205" x2="245" y2="256"/>
<line x1="295" y1="225" x2="245" y2="256"/>
<line x1="285" y1="285" x2="245" y2="256"/>
<line x1="205" y1="307" x2="245" y2="256"/>
</g>
<g fill="#002F6C">
<circle cx="205" cy="205" r="10"/>
<circle cx="295" cy="225" r="10"/>
<circle cx="205" cy="307" r="10"/>
<circle cx="285" cy="285" r="10"/>
<circle cx="245" cy="256" r="14"/>
</g>
</svg>
